<svg xmlns="http://www.w3.org/2000/svg" viewBox="0 0 256 256" role="img" aria-labelledby="title">
  <title id="title">ZiBTV</title>
  <defs>
    <linearGradient id="redTop" x1="28" y1="42" x2="202" y2="142" gradientUnits="userSpaceOnUse">
      <stop stop-color="#ff4a50"/>
      <stop offset=".42" stop-color="#f20b18"/>
      <stop offset="1" stop-color="#8d0008"/>
    </linearGradient>
    <linearGradient id="redBottom" x1="41" y1="177" x2="216" y2="238" gradientUnits="userSpaceOnUse">
      <stop stop-color="#a90009"/>
      <stop offset=".55" stop-color="#f20b18"/>
      <stop offset="1" stop-color="#ff3039"/>
    </linearGradient>
    <linearGradient id="graphite" x1="163" y1="116" x2="62" y2="216" gradientUnits="userSpaceOnUse">
      <stop stop-color="#050506"/>
      <stop offset=".52" stop-color="#242428"/>
      <stop offset="1" stop-color="#070708"/>
    </linearGradient>
    <linearGradient id="shine" x1="40" y1="0" x2="215" y2="0" gradientUnits="userSpaceOnUse">
      <stop stop-color="#fff" stop-opacity=".82"/>
      <stop offset=".45" stop-color="#fff" stop-opacity=".15"/>
      <stop offset="1" stop-color="#fff" stop-opacity=".65"/>
    </linearGradient>
    <filter id="glow" x="-20%" y="-20%" width="140%" height="140%">
      <feGaussianBlur stdDeviation="3.2" result="blur"/>
      <feFlood flood-color="#f20b18" flood-opacity=".42"/>
      <feComposite in2="blur" operator="in"/>
      <feMerge><feMergeNode/><feMergeNode in="SourceGraphic"/></feMerge>
    </filter>
  </defs>

  <g filter="url(#glow)" stroke-linejoin="round">
    <path d="M28 42h146c32 0 50 17 50 46 0 19-9 34-26 49l-23 20c9-11 12-21 8-30-4-10-13-14-28-14H84c-16 0-28-5-39-15L28 42Z" fill="url(#redTop)" stroke="#ff2731" stroke-width="1.5"/>
    <path d="M176 113c16 1 23 13 13 27L77 228H42c-12 0-18-12-11-22l124-92 21-1Z" fill="url(#graphite)" stroke="#53535a" stroke-width="1.15"/>
    <path d="M31 199h130c17 0 28 5 40 16l25 23H73c-29 0-44-13-44-36 0-16 7-28 20-39l19-16c-9 12-11 22-6 33 6 12 16 19 32 19H31Z" fill="url(#redBottom)" stroke="#ff1d28" stroke-width="1.5"/>
    <path d="M30 43h143c29 0 46 14 49 38" fill="none" stroke="url(#shine)" stroke-width="2" stroke-linecap="round"/>
    <path d="M33 200h128c15 0 25 4 37 14" fill="none" stroke="#ff7780" stroke-opacity=".7" stroke-width="1.4" stroke-linecap="round"/>
    <path d="M176 115 78 226" fill="none" stroke="#fff" stroke-opacity=".34" stroke-width="1.15" stroke-linecap="round"/>
  </g>
</svg>
